<svg xmlns="http://www.w3.org/2000/svg" viewBox="0 0 512 512">
  <rect width="512" height="512" rx="96" fill="#0f766e"/>
  <path d="M176 240c0-44.2 35.8-80 80-80s80 35.8 80 80v32c0 44.2-35.8 80-80 80s-80-35.8-80-80v-32Z" fill="#fff"/>
  <path d="M132 264a20 20 0 1 1 40 0c0 46.4 37.6 84 84 84s84-37.6 84-84a20 20 0 1 1 40 0c0 61.7-45.2 112.9-104 122.3V424h48a20 20 0 1 1 0 40H188a20 20 0 1 1 0-40h48v-37.7c-58.8-9.4-104-60.6-104-122.3Z" fill="#d1fae5"/>
  <path d="M256 110c48 0 92 24.4 117.7 65.2a20 20 0 1 1-33.8 21.3C321.6 167.4 290.2 150 256 150s-65.6 17.4-83.9 46.5a20 20 0 0 1-33.8-21.3C164 134.4 208 110 256 110Z" fill="#f59e0b"/>
</svg>
